# xmcd
# 
# Track frame offsets:
#     150
#     19190
#     42222
#     59310
#     71905
#     95047
#     112260
#     135982
#     152662
#     165592
#     186105
# 
# Disc length: 2632
# 
# Revision: 1
# Processed by: cddbd v1.5.2PL0 Copyright (c) Steve Scherf et al.
# Submitted via: BonkEnc v1.0.15
# 
DISCID=960a460b
DTITLE=Laurie Jones - Howlers Moon
DYEAR=1996
DGENRE=R&B
TTITLE0=Wanna Be
TTITLE1=Adrift On A Sea
TTITLE2=Sacredly Wasted
TTITLE3=Circus Of Clowns
TTITLE4=The Most Beautiful Woman
TTITLE5=Howler's Moon
TTITLE6=In My Head
TTITLE7=Let It Last
TTITLE8=Lost A Dollar
TTITLE9=Let Live
TTITLE10=In My Head (Reprise)
EXTD=
EXTT0=
EXTT1=
EXTT2=
EXTT3=
EXTT4=
EXTT5=
EXTT6=
EXTT7=
EXTT8=
EXTT9=
EXTT10=
PLAYORDER=
